<?xml version="1.0" encoding="UTF-8"?><svg xmlns="http://www.w3.org/2000/svg" version="1.1" width="960px" height="1440px" viewBox="-15 0 30 45"><rect fill="#000000" x="-15" y="0" width="30" height="45"/><path fill="#FF0000" d="M-4 40v1h1v-1z"/><path fill="#555555" d="M-4 41v4h1v-4z"/><path fill="#FF0000" d="M-3 13v1h1v-1z"/><path fill="#555555" d="M-3 14v25h1v-1h1v-1h1v-1h1v-1h1v-1h-1v-1h-1v-1h-1v-1h-1v-17z"/><path fill="#FF0000" d="M-3 39v1h1v-1z"/><path fill="#AAAAAA" d="M-3 40v1h1v1h1v1h1v1h1v1h2v-10h-1v1h-1v1h-1v1h-1v1h-1v1z"/><path fill="#FF8000" d="M-3 41v1h1v-1z"/><path fill="#FFFFFF" d="M-3 42v3h3v-1h-1v-1h-1v-1z"/><path fill="#FF0000" d="M-2 6v1h1v-1z"/><path fill="#555555" d="M-2 7v5h1v-1h1v-1h-1v-3z"/><path fill="#FF0000" d="M-2 12v1h1v-1z"/><path fill="#AAAAAA" d="M-2 13v1h1v1h1v1h1v-5h-1v1h-1v1z"/><path fill="#FF8000" d="M-2 14v1h1v-1z"/><path fill="#FFFFFF" d="M-2 15v15h1v-9h1v-3h1v-1h-1v-1h-1v-1z"/><path fill="#FF0000" d="M-2 30v1h1v-1z"/><path fill="#FF0000" d="M-2 38v1h1v-1z"/><path fill="#FF8000" d="M-2 42v1h1v-1z"/><path fill="#FF0000" d="M-1 3v1h1v-1z"/><path fill="#555555" d="M-1 4v1h1v-1z"/><path fill="#FF0000" d="M-1 5v1h1v-1z"/><path fill="#AAAAAA" d="M-1 6v1h1v-1z"/><path fill="#FF8000" d="M-1 7v1h1v-1z"/><path fill="#FFFFFF" d="M-1 8v1h1v-1z"/><path fill="#FF0000" d="M-1 9v1h1v-1z"/><path fill="#FF0000" d="M-1 11v1h1v-1z"/><path fill="#FF8000" d="M-1 15v1h1v-1z"/><path fill="#FF0000" d="M-1 21v1h1v-1z"/><path fill="#555555" d="M-1 22v7h1v-1h1v-1h1v-1h1v-1h-1v-1h-1v-1h-1v-1z"/><path fill="#FF0000" d="M-1 29v1h1v-1z"/><path fill="#AAAAAA" d="M-1 30v1h1v1h1v1h1v-5h-1v1h-1v1z"/><path fill="#FF0000" d="M-1 31v1h1v-1z"/><path fill="#FF0000" d="M-1 37v1h1v-1z"/><path fill="#FF8000" d="M-1 43v1h1v-1z"/><path fill="#FF0000" d="M0 0v1h1v-1z"/><path fill="#555555" d="M0 1v1h1v-1z"/><path fill="#FF8000" d="M0 2v1h1v-1z"/><path fill="#555555" d="M0 3v1h1v1h-1v3h1v1h-1v1h1v7h1v-15h-1v1z"/><path fill="#FF8000" d="M0 4v1h1v-1z"/><path fill="#FF8000" d="M0 8v1h1v-1z"/><path fill="#FF0000" d="M0 10v1h1v-1z"/><path fill="#FF8000" d="M0 16v1h1v-1z"/><path fill="#FF0000" d="M0 18v1h1v-1z"/><path fill="#555555" d="M0 19v1h1v-1z"/><path fill="#FF0000" d="M0 20v1h1v-1z"/><path fill="#AAAAAA" d="M0 21v1h1v1h1v-3h-1v1z"/><path fill="#FF0000" d="M0 22v1h1v-1z"/><path fill="#FF0000" d="M0 28v1h1v-1z"/><path fill="#FF0000" d="M0 32v1h1v-1z"/><path fill="#FF0000" d="M0 36v1h1v-1z"/><path fill="#FF8000" d="M0 44v1h1v-1z"/><path fill="#FF8000" d="M1 1v1h1v-1z"/><path fill="#FF8000" d="M1 17v1h1v-1z"/><path fill="#555555" d="M1 18v1h1v-1z"/><path fill="#FF0000" d="M1 19v1h1v-1z"/><path fill="#FF0000" d="M1 23v1h1v-1z"/><path fill="#FF0000" d="M1 27v1h1v-1z"/><path fill="#FF0000" d="M1 33v1h1v-1z"/><path fill="#FF0000" d="M1 35v1h1v-1z"/><path fill="#FF0000" d="M2 24v1h1v-1z"/><path fill="#FF8000" d="M2 26v1h1v-1z"/><path fill="#555555" d="M2 27v7h1v11h1v-19h-1v1z"/><path fill="#FF0000" d="M2 34v1h1v-1z"/><path fill="#FF8000" d="M3 25v1h1v-1z"/></svg>